<svg t="1590936970815" class="icon" viewBox="0 0 1024 1024" version="1.1" xmlns="http://www.w3.org/2000/svg" p-id="2767" width="64" height="64"><path d="M714.801548 638.992516c76.238452-60.036129 125.357419-152.955871 125.357419-257.536 0-181.099355-146.811871-327.911226-327.911226-327.911226-181.099355 0-327.927742 146.811871-327.927742 327.911226 0 104.580129 49.135484 197.499871 125.357419 257.536C173.006452 708.657548 76.8 846.269935 66.163613 1007.483871l59.722323 0c11.495226-150.957419 109.634065-277.487484 244.702968-330.619871 42.908903 20.595613 90.855226 32.520258 141.658839 32.520258 50.820129 0 98.716903-11.924645 141.658839-32.520258C788.975484 729.996387 887.114323 856.526452 898.626065 1007.483871l59.705806 0C947.728516 846.269935 851.489032 708.657548 714.801548 638.992516zM512.264258 649.761032c-148.199226 0-268.304516-120.088774-268.304516-268.288S364.065032 113.185032 512.264258 113.185032c148.18271 0 268.271484 120.088774 268.271484 268.288S660.430452 649.761032 512.264258 649.761032z" p-id="2768" fill="#8a8a8a"></path></svg>